<?xml version="1.0" encoding="UTF-8" standalone="no"?>
<!-- Created with Inkscape (http://www.inkscape.org/) -->

<svg
   width="1405.4634"
   height="1155.094"
   viewBox="0 0 371.86219 305.61862"
   version="1.1"
   id="svg1"
   xml:space="preserve"
   xmlns="http://www.w3.org/2000/svg"
   xmlns:svg="http://www.w3.org/2000/svg"><defs
     id="defs1" /><g
     id="layer1"
     transform="translate(-845.96697,-887.69446)"><text
       xml:space="preserve"
       style="font-weight:bold;font-size:68.8507px;line-height:61.9782px;font-family:SUSE;-inkscape-font-specification:'SUSE Bold';text-align:center;letter-spacing:0.275403px;text-anchor:middle;fill:#ffffff;fill-opacity:1;stroke:#ffffff;stroke-width:7.57984;stroke-linejoin:round;stroke-miterlimit:100;stroke-dashoffset:349.228"
       x="1032.7587"
       y="1178.9922"
       id="text2-5"><tspan
         id="tspan2-3"
         style="font-style:normal;font-variant:normal;font-weight:bold;font-stretch:normal;font-family:'Visby CF';-inkscape-font-specification:'Visby CF Bold';fill:#ffffff;fill-opacity:1;stroke:none;stroke-width:7.57984"
         x="1032.8964"
         y="1178.9922">gki salatiga</tspan></text><path
       style="fill:#ffffff;fill-opacity:1;stroke-width:2.54399"
       d="m 1021.1039,1101.9082 c -4.9482,-0.4734 -8.3884,-1.08 -14.9887,-2.63 -10.02617,-2.3533 -17.61047,-5.4046 -28.66597,-11.5322 -2.8018,-1.5527 -8.1598,-5.1342 -9.5867,-6.4083 -1.1632,-1.0387 -1.949,-1.1131 -14.2786,-1.3599 l -13.0484,-0.257 -0.1556,-4.0441 -0.1488,-4.0447 h 1.5426 c 1.3268,0 1.9348,-0.5545 4.3362,-3.9865 1.8942,-2.7037 2.6387,-4.1956 2.3135,-4.6351 -4.0765,-5.5136 -7.09,-9.6895 -7.09,-9.8268 0,-0.1014 -1.157,-2.0707 -2.5718,-4.393 -3.829,-6.2879 -7.4963,-14.894 -10.6105,-24.9067 -0.2638,-0.8582 -0.8501,-3.3265 -1.2829,-5.4791 -0.4328,-2.1538 -1.1097,-5.4411 -1.4945,-7.3056 -1.0753,-5.2147 -0.9008,-27.60153 0.2705,-33.63043 3.6673,-19.009 9.9397,-33.4357 20.6598,-47.5175 1.7481,-2.2952 3.4293,-4.4335 3.735,-4.752 0.3043,-0.3179 2.074,-2.2642 3.9277,-4.3241 8.786,-9.7638 24.4813,-20.3913 37.8807,-25.6485 13.63887,-5.3526 25.15017,-7.5241 39.92987,-7.5322 23.7449,0 44.941,7.025 64.2584,21.3421 10.0493,7.449 22.1483,20.8559 27.6909,30.684 3.664,6.4948 4.9272,8.9868 6.6882,13.1918 2.9525,7.0541 4.3423,11.556 6.6186,21.4456 0.8047,3.5044 2.1045,16.18498 2.1045,20.56378 0,4.3774 -1.2978,17.05865 -2.1045,20.56235 -2.2682,9.8484 -3.6824,14.4442 -6.5347,21.217 -3.2434,7.704 -7.0109,14.3861 -12.1565,21.566 -2.8526,3.9798 -2.8558,3.8175 0.1353,7.8818 0.8399,1.1476 2.0882,2.2127 2.7665,2.3696 1.1111,0.257 1.2633,0.6492 1.5013,3.831 0.142,1.9497 0.1691,3.643 0.088,3.7627 -0.1218,0.115 -4.9671,0.2164 -10.7694,0.2164 h -10.5504 l -3.012,2.5759 c -9.8295,8.4012 -28.6147,17.7045 -41.2919,20.4488 -3.9386,0.8494 -7.4917,1.5223 -10.8412,2.043 -4.602,0.7168 -19.8699,1.0293 -25.2056,0.514 z m 4.1962,-44.6298 c 0.088,-20.952 0,-38.6544 -0.1556,-39.3381 -0.3043,-1.2166 -0.3246,-1.222 -1.2037,-0.2503 -0.4937,0.5546 -2.8613,3.1433 -5.2613,5.7611 l -4.3626,4.7602 v 32.2732 c 0,19.4222 0.2029,32.5843 0.514,33.055 0.5207,0.8223 6.0112,2.0085 8.7366,1.8942 l 1.5865,-0.088 z m 8.0515,-6.5232 v -44.8788 h 1.5311 c 1.3883,0 4.815,2.4035 4.815,3.378 0,0.7513 13.8647,15.4086 14.5781,15.4086 0.6561,0 0.7616,4.7507 0.7616,33.6582 v 33.6595 h 1.1902 c 0.656,0 2.022,-0.426 3.0405,-0.9197 l 1.8509,-0.8933 0.088,-42.2643 c 0,-23.2452 -0.1217,-42.733 -0.3449,-43.3065 -0.2231,-0.5748 -2.3325,-3.6274 -4.6913,-6.78415 -2.3588,-3.1575 -6.1215,-8.2071 -8.362,-11.2199 -7.5247,-10.12628 -12.9463,-17.22088 -13.1587,-17.22088 -0.1149,0 -0.2164,1.9922 -0.2164,4.4268 v 4.4274 l 2.5123,1.264 c 6.8046,3.4252 9.4062,10.75788 6.0593,17.07828 -5.1842,9.79355 -18.7317,9.45405 -23.3377,-0.5816 -2.7308,-5.9531 0.2367,-13.73888 6.2621,-16.41898 1.1869,-0.5342 2.1695,-1.1591 2.1817,-1.4025 0.1961,-3.6025 0,-9.3399 -0.372,-9.4285 -0.2502,-0.088 -2.1316,2.227 -4.1914,5.0876 -6.7586,9.3851 -20.6564,29.18533 -21.234,30.25173 -0.5748,1.0591 -0.85,26.4161 -0.7256,66.8626 l 0.088,19.3749 1.7197,0.6628 c 0.9441,0.3651 2.4894,1.0069 3.4334,1.4262 3.5193,1.5649 3.309,3.7546 3.309,-34.4379 v -34.5955 l 7.6688,-8.272 c 4.2178,-4.5506 7.6681,-8.4946 7.6681,-8.7644 0,-0.2705 1.0124,-0.4125 2.2479,-0.3246 l 2.2472,0.1555 0.1353,44.7482 0.1352,44.7483 h 1.5838 1.5838 z m 11.1063,44.1666 3.4381,-0.6492 0.1352,-33.0138 0.1353,-33.015 -3.8074,-4.1408 c -2.0937,-2.2763 -3.9994,-4.1394 -4.2354,-4.1394 -0.5072,0 -0.5816,74.8162 -0.088,75.3193 0.426,0.4193 0.142,0.4396 4.4079,-0.3652 z m 29.0874,-8.2579 c 5.4067,-2.4318 12.1646,-6.3974 17.125,-10.0458 5.6069,-4.1245 13.444,-11.1448 13.8498,-12.406 0.2029,-0.6222 -0.8135,-2.467 -3.0154,-5.5001 -1.8246,-2.5102 -3.566,-4.7331 -3.8703,-4.9373 -0.3246,-0.2232 -1.0631,0.6221 -1.7826,2.0118 -1.3985,2.7146 -8.174,9.6638 -11.7284,12.0294 -4.9536,3.2967 -9.7645,5.4243 -12.9883,5.7448 -1.7285,0.1691 -3.317,0.5681 -3.5307,0.8866 -0.4667,0.6898 -0.5208,11.5627 -0.088,13.2432 0.3787,1.3877 0.8047,1.314 6.0085,-1.0266 z m -78.90687,1.0368 c 0.4531,-0.4396 0.6357,-3.4929 0.6357,-10.3949 v -9.7679 l -2.8687,-2.5211 c -7.186,-6.3115 -17.6843,-10.3028 -24.4881,-9.3101 -2.0985,0.3044 -2.4292,0.6019 -5.3986,4.8624 l -3.1629,4.5356 2.2249,2.2581 c 6.6781,6.7741 16.1288,13.4522 25.7608,18.2022 6.0289,2.9729 6.3542,3.0682 7.2976,2.1357 z m 76.89767,-17.1811 c 6.9486,-1.456 14.7959,-6.601 20.0749,-13.1587 2.2343,-2.7768 2.7124,-4.1462 0.8399,-2.4143 -1.947,1.8043 -8.6819,5.7733 -12.1951,7.188 -1.8008,0.725 -5.4161,1.6907 -8.0339,2.1444 l -4.7602,0.823 -0.1691,2.2777 c -0.1826,2.5015 0.115,3.7228 0.9163,3.7228 0.2841,0 1.7813,-0.2637 3.3225,-0.5816 z m -76.50077,-11.627 c -0.7168,-2.5123 -10.4739,-8.4134 -16.4561,-9.9512 -1.7028,-0.4328 -4.086,-0.7959 -5.2944,-0.7959 -1.9774,0 -2.3392,0.2164 -3.5917,2.0754 -0.7601,1.1429 -1.3924,2.3176 -1.3924,2.6097 0,0.2976 1.1307,0.541 2.5123,0.5545 5.7232,0 12.5616,2.5049 19.2978,6.9845 l 4.8982,3.2575 0.169,-1.8164 c 0.1015,-0.9989 0,-2.3074 -0.142,-2.91 z m 82.47757,1.9476 c 1.454,-0.4733 3.7147,-1.4411 5.024,-2.1511 3.6572,-1.9835 9.258,-6.0194 8.6365,-6.2237 -0.3043,-0.1014 -2.6705,0.4396 -5.2566,1.2132 -3.8959,1.1558 -5.8821,1.4161 -11.5782,1.5142 l -6.8749,0.1149 -0.1555,2.9844 c -0.088,1.6419 0.088,3.2771 0.3854,3.6376 0.6695,0.796 5.7692,0.2232 9.8187,-1.0942 z m -99.89057,-37.0909 c 13.3311,-18.5836 25.90887,-36.05545 27.95187,-38.82603 6.6429,-9.0092 21.1507,-29.2578 21.7797,-30.398 0.5342,-0.9542 0.9197,-4.2936 0.7614,-6.4434 0,-0.4531 -1.1469,-0.656 -3.6457,-0.656 -2.0923,0 -3.8608,-0.2637 -4.23,-0.6289 -0.8494,-0.8311 -0.8142,-4.3193 0.088,-5.0233 0.3855,-0.3043 2.3392,-0.6289 4.3626,-0.7168 l 3.6808,-0.1555 -0.142,-1.8814 c -0.1826,-2.4176 0.7608,-3.1845 3.6762,-2.9776 l 2.2864,0.1556 0.2638,2.3473 0.2637,2.3493 3.9663,0.257 3.9669,0.2637 v 2.8701 2.87 l -3.9669,0.2638 -3.9663,0.2569 -0.1623,3.497 c -0.1352,2.9532 0,3.8026 1.1165,5.4784 3.0114,4.7007 66.0505,87.06043 66.7525,87.21323 0.426,0.1015 0.7791,0.4599 0.7791,0.8142 0,1.0313 7.9351,11.859 8.4586,11.5391 0.8839,-0.541 8.2849,-12.5054 10.2535,-16.5758 4.3856,-9.068 7.242,-17.9291 9.1241,-28.3036 1.3356,-7.3584 1.3356,-25.51865 0,-32.87633 -4.8941,-26.9775 -18.3111,-48.8444 -39.7357,-64.7663 -20.1465,-14.9703 -44.9357,-21.6315 -70.6045,-18.9731 -41.83217,4.3334 -77.24997,35.5929 -86.93537,76.7306 -2.045,8.6852 -2.6706,14.22718 -2.6767,23.70768 0,13.70975 1.897,23.70425 7.2144,37.83265 2.7835,7.3949 13.0471,24.5273 14.6938,24.5273 0.2367,0 11.3368,-15.205 24.6673,-33.7887 z m -27.1634,22.9611 c -5.3681,-8.9584 -9.5285,-19.1835 -12.1179,-29.7872 -1.2687,-5.1944 -1.2822,-5.4257 -0.3517,-6.1182 0.5275,-0.399 1.2836,-0.7256 1.6745,-0.7344 0.3854,0 1.3437,-0.3652 2.116,-0.7878 1.5655,-0.8575 12.1125,-5.4926 12.4993,-5.4926 0.1353,0 1.621,-0.6222 3.3015,-1.3674 1.6812,-0.752 3.7695,-1.6711 4.6419,-2.043 0.8757,-0.372 3.0147,-1.29905 4.7602,-2.06255 10.7072,-4.6858 11.9299,-5.1437 12.4073,-4.6493 0.2503,0.257 1.0895,1.9943 1.8686,3.8601 0.7783,1.8651 2.2296,4.83925 3.2223,6.60705 0.9928,1.7697 1.8057,3.5409 1.8057,3.9399 0,0.399 -1.6068,2.8558 -3.5707,5.4648 -4.0035,5.3188 -9.6212,12.899 -19.2647,25.9962 -3.5916,4.8792 -7.004,9.5096 -7.5822,10.2906 -0.5748,0.7784 -1.4154,1.4256 -1.8604,1.4344 -0.4666,0 -1.9726,-1.924 -3.5456,-4.5499 z m 158.55897,1.3052 c -0.5546,-0.6424 -5.358,-6.5753 -10.6707,-13.1776 -5.312,-6.601 -12.3513,-15.3322 -15.6433,-19.4026 -3.2921,-4.0698 -5.9849,-7.6289 -5.9849,-7.9082 0,-0.284 1.013,-2.1296 2.2513,-4.111 1.2389,-1.9821 2.824,-4.94005 3.524,-6.57255 0.6986,-1.6338 1.5763,-2.9694 1.9496,-2.9694 0.9859,0 33.7942,13.52035 41.1958,16.97745 0.8751,0.4057 1.3167,0.7432 0.9867,0.752 -0.3246,0 -1.1239,2.1843 -1.7664,4.84 -1.6967,7.0088 -4.5364,15.013 -7.5133,21.1791 -2.7753,5.751 -6.252,11.5661 -6.914,11.5661 -0.2232,0 -0.8575,-0.5342 -1.4148,-1.1746 z m 2.3419,-45.6165 c -7.8534,-3.27035 -14.8311,-6.17425 -15.5033,-6.45285 -0.6695,-0.284 -1.3214,-0.5072 -1.4391,-0.5072 -0.1149,0 -1.4708,-0.568 -3.0066,-1.2511 -1.5358,-0.6897 -3.7107,-1.627 -4.8333,-2.0849 -1.6122,-0.656 -1.9591,-1.0259 -1.6527,-1.7488 0.9183,-2.1688 2.2999,-8.05698 2.9403,-12.52768 l 0.6905,-4.8265 h 18.3517 18.351 l 0.3652,1.435 c 1.0834,4.2402 1.8638,12.13008 1.8638,18.82918 0,7.00735 -0.7162,13.99785 -1.5149,14.75995 -0.1825,0.1826 -6.7612,-2.3554 -14.6146,-5.6251 z m -174.66747,4.6506 c -0.2029,-0.5004 -0.3855,-5.8442 -0.3855,-11.87035 0,-10.68758 0.8318,-19.52158 1.9902,-21.00458 0.3923,-0.4937 4.7217,-0.656 18.4403,-0.656 h 17.9297 l 0.514,1.3383 c 0.284,0.7344 0.5207,2.3203 0.5207,3.5213 0,1.2017 0.6019,4.5323 1.3228,7.40168 0.7256,2.8694 1.316,5.3972 1.316,5.6177 0,0.2231 -0.771,0.7351 -1.7197,1.1327 -0.9448,0.4058 -2.8464,1.2213 -4.2247,1.8185 -1.3782,0.6019 -2.6509,1.0867 -2.8288,1.0867 -0.1825,0 -1.0725,0.3246 -1.9882,0.7338 -5.7806,2.5366 -29.1434,11.79185 -29.7669,11.79185 -0.4193,0 -0.9238,-0.4125 -1.1287,-0.9122 z m 2.7929,-37.16923 c -0.6904,-1.0996 3.3408,-11.8704 7.1724,-19.1666 2.4211,-4.6121 5.5596,-9.5461 6.0735,-9.5461 0.2976,0 18.3531,7.4186 22.6318,9.3 3.0655,1.3477 3.0919,1.3788 2.7903,3.2061 -0.1691,1.0144 -0.6817,3.1372 -1.1341,4.7149 -0.4599,1.5784 -1.0476,4.6973 -1.3147,6.9303 -0.2637,2.233 -0.6289,4.2882 -0.8054,4.5655 -0.4328,0.6904 -34.9857,0.6816 -35.4172,0 z m 148.86817,-1.036 c 0,-2.0924 -1.8286,-11.2287 -2.8024,-13.9932 -0.9475,-2.6936 -1.7799,-2.1411 10.7363,-7.1258 4.7994,-1.9111 9.2019,-3.689 9.7841,-3.9494 1.3647,-0.6086 5.1099,-2.0862 5.2986,-2.0862 0.088,0 1.2105,1.7021 2.5136,3.783 4.0366,6.4454 9.1167,18.0433 10.1723,23.2221 l 0.3449,1.6961 h -18.0237 -18.0237 z m -111.32617,-21.1934 c -1.4547,-0.6695 -2.8248,-1.2362 -3.0466,-1.245 -0.2231,0 -1.412,-0.4734 -2.6435,-1.0502 -1.2342,-0.5681 -5.3282,-2.302 -9.0997,-3.8594 -3.7716,-1.5561 -6.9439,-3.0885 -7.0514,-3.4057 -0.1015,-0.3178 0.5748,-1.5736 1.5202,-2.7943 2.1701,-2.8031 13.3149,-13.7971 15.9936,-15.7758 l 2.0186,-1.4905 7.6323,7.5173 c 4.1996,4.1347 7.6336,7.8183 7.6336,8.1855 0,0.3652 -1.0779,1.9726 -2.3966,3.57 -1.3187,1.5966 -3.4983,4.7723 -4.8427,7.0574 -1.3458,2.2838 -2.5867,4.2348 -2.7592,4.3355 -0.169,0.095 -1.504,-0.3719 -2.9586,-1.0448 z m 105.22627,-0.6086 c -1.4526,-3.0506 -4.3789,-7.4314 -6.9878,-10.4665 l -2.3818,-2.7693 7.9529,-7.8953 7.9521,-7.8954 2.0301,1.4918 c 5.0402,3.7039 18.161,17.5443 18.161,19.1592 0,0.257 -0.8926,0.823 -1.9834,1.2504 -1.0908,0.4193 -2.5779,1.0354 -3.3049,1.3471 -0.7256,0.3043 -1.7982,0.7608 -2.3805,0.9928 -13.7483,5.5108 -16.9417,6.7423 -17.4813,6.7423 -0.3517,0 -1.0631,-0.8758 -1.5764,-1.9571 z m -96.92587,-23.2512 c -8.6047,-8.5047 -8.4025,-7.4889 -2.2181,-11.1543 4.1008,-2.4305 9.4392,-4.9651 14.6404,-6.9486 l 3.79917,-1.4492 1.5757,3.9845 c 0.8676,2.1925 2.3229,5.9721 3.2339,8.4006 l 1.6575,4.4153 -1.2146,0.9224 c -0.6762,0.5072 -1.389,0.9271 -1.6021,0.9339 -0.7337,0 -6.50627,3.8317 -9.21737,6.0891 -1.5006,1.2504 -2.8126,2.2715 -2.9147,2.2715 -0.1014,0 -3.5862,-3.359 -7.7398,-7.4652 z m 82.35927,5.2417 c -2.8417,-2.2729 -7.2786,-5.1626 -10.2036,-6.6436 -0.8317,-0.4261 -1.6223,-1.0381 -1.75,-1.3654 -0.257,-0.6762 5.4763,-14.6999 6.4427,-15.7555 0.7256,-0.7967 4.5573,0.4869 11.6473,3.8838 4.4585,2.139 11.8859,6.4927 11.8859,6.9675 0,0.1487 -3.4098,3.6369 -7.5775,7.7418 l -7.5775,7.4632 z m -57.625,-11.6486 c -0.5749,-1.3147 -1.0381,-2.5502 -1.0381,-2.7429 0,-0.1962 -0.8318,-2.4454 -1.8509,-5.0044 -2.2587,-5.6765 -2.3034,-6.442 -0.399,-6.8539 0.7959,-0.1758 1.7819,-0.4193 2.1823,-0.541 4.0968,-1.2741 19.6373,-3.1994 20.6814,-2.5617 0.3246,0.2029 0.541,3.4023 0.541,8.1375 v 7.8101 l -1.3566,0.514 c -0.7432,0.284 -2.1153,0.5072 -3.0418,0.5072 -1.9571,0 -7.3996,1.1165 -11.2043,2.2972 -1.4533,0.4531 -2.8308,0.8231 -3.0587,0.8231 -0.2299,0 -0.8852,-1.0699 -1.4547,-2.3859 z m 38.3061,1.4093 c -2.6334,-0.8859 -7.4267,-1.8178 -12.5047,-2.4312 l -2.5117,-0.3043 v -8.0252 c 0,-4.842 0.2164,-8.155 0.5343,-8.3518 0.6904,-0.426 11.8738,0.6627 16.0605,1.5615 7.8326,1.6785 8.7922,1.953 8.7922,2.513 0,1.2937 -6.5159,16.0179 -7.0731,15.9827 -0.3246,0 -1.8117,-0.4395 -3.2975,-0.9454 z m -53.61797,131.21763 c -1.4046,-2.5347 -10.9014,-8.0158 -15.736,-9.0822 -2.2235,-0.4869 -2.2587,-0.4734 -3.8404,1.6487 -0.8758,1.1774 -1.5176,2.375 -1.4209,2.6624 0.1015,0.2841 1.5872,0.7872 3.3117,1.1166 1.7251,0.3246 3.7309,0.8405 4.4579,1.1367 3.8865,1.5886 7.4801,3.447 10.313,5.3303 l 3.1737,2.11 0.169,-1.9213 c 0.1015,-1.0577 -0.1014,-2.4088 -0.426,-3.0012 z m 89.72967,1.7657 c 3.6762,-0.9258 9.1627,-2.9992 9.1627,-3.4618 0,-0.1217 -3.0195,-4.2638 -6.7105,-9.1985 -12.1977,-16.3053 -15.2647,-20.4251 -17.056,-22.9138 -0.9765,-1.3538 -1.9767,-2.3391 -2.2256,-2.187 -0.5477,0.3381 -0.5951,37.2809 0,38.1357 0.9225,1.4297 10.5585,1.2166 16.8721,-0.3719 z m -89.20627,-21.1399 c 0,-9.557 -0.1961,-15.8286 -0.4869,-15.6508 -0.4734,0.2976 -12.1883,16.7341 -14.9819,21.0412 -0.9982,1.5385 -1.247,2.2987 -0.7966,2.4265 4.4342,1.2551 8.604,3.2501 13.346,6.3852 1.4499,0.9596 2.7003,1.7448 2.776,1.7448 0.088,0 0.142,-7.1758 0.142,-15.9469 z m 40.78457,-35.13245 c 1.7285,-1.7042 2.0532,-2.3696 2.0532,-4.2002 0,-4.2138 -2.5692,-6.82078 -6.716,-6.81808 -2.2986,0 -5.0841,1.48438 -6.0147,3.20068 -0.919,1.692 -0.7783,4.7643 0.2976,6.5604 1.2944,2.16 3.3049,3.2529 6.0194,3.2691 1.9868,0 2.5968,-0.2637 4.3626,-2.0119 z"
       id="path2" /></g></svg>
