<?xml version="1.0" encoding="UTF-8" standalone="no"?>
<!-- Created with Inkscape (http://www.inkscape.org/) -->

<svg
   width="1405.2427"
   height="1156.1819"
   viewBox="0 0 371.80379 305.90646"
   version="1.1"
   id="svg1"
   xml:space="preserve"
   xmlns="http://www.w3.org/2000/svg"
   xmlns:svg="http://www.w3.org/2000/svg"><defs
     id="defs1" /><g
     id="layer1"
     transform="translate(-846.2237,-887.69445)"><path
       style="fill:#ffffff;fill-opacity:1;stroke-width:2.54399"
       d="m 1021.1039,1101.9082 c -4.9482,-0.4734 -8.3884,-1.08 -14.9887,-2.63 -10.02617,-2.3533 -17.61047,-5.4046 -28.66597,-11.5322 -2.8018,-1.5527 -8.1598,-5.1342 -9.5867,-6.4083 -1.1632,-1.0387 -1.949,-1.1131 -14.2786,-1.3599 l -13.0484,-0.257 -0.1556,-4.0441 -0.1488,-4.0447 h 1.5426 c 1.3268,0 1.9348,-0.5545 4.3362,-3.9865 1.8942,-2.7037 2.6387,-4.1956 2.3135,-4.6351 -4.0765,-5.5136 -7.09,-9.6895 -7.09,-9.8268 0,-0.1014 -1.157,-2.0707 -2.5718,-4.393 -3.829,-6.2879 -7.4963,-14.894 -10.6105,-24.9067 -0.2638,-0.8582 -0.8501,-3.3265 -1.2829,-5.4791 -0.4328,-2.1538 -1.1097,-5.4411 -1.4945,-7.3056 -1.0753,-5.2147 -0.9008,-27.60153 0.2705,-33.63043 3.6673,-19.009 9.9397,-33.4357 20.6598,-47.5175 1.7481,-2.2952 3.4293,-4.4335 3.735,-4.752 0.3043,-0.3179 2.074,-2.2642 3.9277,-4.3241 8.786,-9.7638 24.4813,-20.3913 37.8807,-25.6485 13.63887,-5.3526 25.15017,-7.5241 39.92987,-7.5322 23.7449,0 44.941,7.025 64.2584,21.3421 10.0493,7.449 22.1483,20.8559 27.6909,30.684 3.664,6.4948 4.9272,8.9868 6.6882,13.1918 2.9525,7.0541 4.3423,11.556 6.6186,21.4456 0.8047,3.5044 2.1045,16.18498 2.1045,20.56378 0,4.3774 -1.2978,17.05865 -2.1045,20.56235 -2.2682,9.8484 -3.6824,14.4442 -6.5347,21.217 -3.2434,7.704 -7.0109,14.3861 -12.1565,21.566 -2.8526,3.9798 -2.8558,3.8175 0.1353,7.8818 0.8399,1.1476 2.0882,2.2127 2.7665,2.3696 1.1111,0.257 1.2633,0.6492 1.5013,3.831 0.142,1.9497 0.1691,3.643 0.088,3.7627 -0.1218,0.115 -4.9671,0.2164 -10.7694,0.2164 h -10.5504 l -3.012,2.5759 c -9.8295,8.4012 -28.6147,17.7045 -41.2919,20.4488 -3.9386,0.8494 -7.4917,1.5223 -10.8412,2.043 -4.602,0.7168 -19.8699,1.0293 -25.2056,0.514 z m 4.1962,-44.6298 c 0.088,-20.952 0,-38.6544 -0.1556,-39.3381 -0.3043,-1.2166 -0.3246,-1.222 -1.2037,-0.2503 -0.4937,0.5546 -2.8613,3.1433 -5.2613,5.7611 l -4.3626,4.7602 v 32.2732 c 0,19.4222 0.2029,32.5843 0.514,33.055 0.5207,0.8223 6.0112,2.0085 8.7366,1.8942 l 1.5865,-0.088 z m 8.0515,-6.5232 v -44.8788 h 1.5311 c 1.3883,0 4.815,2.4035 4.815,3.378 0,0.7513 13.8647,15.4086 14.5781,15.4086 0.6561,0 0.7616,4.7507 0.7616,33.6582 v 33.6595 h 1.1902 c 0.656,0 2.022,-0.426 3.0405,-0.9197 l 1.8509,-0.8933 0.088,-42.2643 c 0,-23.2452 -0.1217,-42.733 -0.3449,-43.3065 -0.2231,-0.5748 -2.3325,-3.6274 -4.6913,-6.78415 -2.3588,-3.1575 -6.1215,-8.2071 -8.362,-11.2199 -7.5247,-10.12628 -12.9463,-17.22088 -13.1587,-17.22088 -0.1149,0 -0.2164,1.9922 -0.2164,4.4268 v 4.4274 l 2.5123,1.264 c 6.8046,3.4252 9.4062,10.75788 6.0593,17.07828 -5.1842,9.79355 -18.7317,9.45405 -23.3377,-0.5816 -2.7308,-5.9531 0.2367,-13.73888 6.2621,-16.41898 1.1869,-0.5342 2.1695,-1.1591 2.1817,-1.4025 0.1961,-3.6025 0,-9.3399 -0.372,-9.4285 -0.2502,-0.088 -2.1316,2.227 -4.1914,5.0876 -6.7586,9.3851 -20.6564,29.18533 -21.234,30.25173 -0.5748,1.0591 -0.85,26.4161 -0.7256,66.8626 l 0.088,19.3749 1.7197,0.6628 c 0.9441,0.3651 2.4894,1.0069 3.4334,1.4262 3.5193,1.5649 3.309,3.7546 3.309,-34.4379 v -34.5955 l 7.6688,-8.272 c 4.2178,-4.5506 7.6681,-8.4946 7.6681,-8.7644 0,-0.2705 1.0124,-0.4125 2.2479,-0.3246 l 2.2472,0.1555 0.1353,44.7482 0.1352,44.7483 h 1.5838 1.5838 z m 11.1063,44.1666 3.4381,-0.6492 0.1352,-33.0138 0.1353,-33.015 -3.8074,-4.1408 c -2.0937,-2.2763 -3.9994,-4.1394 -4.2354,-4.1394 -0.5072,0 -0.5816,74.8162 -0.088,75.3193 0.426,0.4193 0.142,0.4396 4.4079,-0.3652 z m 29.0874,-8.2579 c 5.4067,-2.4318 12.1646,-6.3974 17.125,-10.0458 5.6069,-4.1245 13.444,-11.1448 13.8498,-12.406 0.2029,-0.6222 -0.8135,-2.467 -3.0154,-5.5001 -1.8246,-2.5102 -3.566,-4.7331 -3.8703,-4.9373 -0.3246,-0.2232 -1.0631,0.6221 -1.7826,2.0118 -1.3985,2.7146 -8.174,9.6638 -11.7284,12.0294 -4.9536,3.2967 -9.7645,5.4243 -12.9883,5.7448 -1.7285,0.1691 -3.317,0.5681 -3.5307,0.8866 -0.4667,0.6898 -0.5208,11.5627 -0.088,13.2432 0.3787,1.3877 0.8047,1.314 6.0085,-1.0266 z m -78.90687,1.0368 c 0.4531,-0.4396 0.6357,-3.4929 0.6357,-10.3949 v -9.7679 l -2.8687,-2.5211 c -7.186,-6.3115 -17.6843,-10.3028 -24.4881,-9.3101 -2.0985,0.3044 -2.4292,0.6019 -5.3986,4.8624 l -3.1629,4.5356 2.2249,2.2581 c 6.6781,6.7741 16.1288,13.4522 25.7608,18.2022 6.0289,2.9729 6.3542,3.0682 7.2976,2.1357 z m 76.89767,-17.1811 c 6.9486,-1.456 14.7959,-6.601 20.0749,-13.1587 2.2343,-2.7768 2.7124,-4.1462 0.8399,-2.4143 -1.947,1.8043 -8.6819,5.7733 -12.1951,7.188 -1.8008,0.725 -5.4161,1.6907 -8.0339,2.1444 l -4.7602,0.823 -0.1691,2.2777 c -0.1826,2.5015 0.115,3.7228 0.9163,3.7228 0.2841,0 1.7813,-0.2637 3.3225,-0.5816 z m -76.50077,-11.627 c -0.7168,-2.5123 -10.4739,-8.4134 -16.4561,-9.9512 -1.7028,-0.4328 -4.086,-0.7959 -5.2944,-0.7959 -1.9774,0 -2.3392,0.2164 -3.5917,2.0754 -0.7601,1.1429 -1.3924,2.3176 -1.3924,2.6097 0,0.2976 1.1307,0.541 2.5123,0.5545 5.7232,0 12.5616,2.5049 19.2978,6.9845 l 4.8982,3.2575 0.169,-1.8164 c 0.1015,-0.9989 0,-2.3074 -0.142,-2.91 z m 82.47757,1.9476 c 1.454,-0.4733 3.7147,-1.4411 5.024,-2.1511 3.6572,-1.9835 9.258,-6.0194 8.6365,-6.2237 -0.3043,-0.1014 -2.6705,0.4396 -5.2566,1.2132 -3.8959,1.1558 -5.8821,1.4161 -11.5782,1.5142 l -6.8749,0.1149 -0.1555,2.9844 c -0.088,1.6419 0.088,3.2771 0.3854,3.6376 0.6695,0.796 5.7692,0.2232 9.8187,-1.0942 z m -99.89057,-37.0909 c 13.3311,-18.5836 25.90887,-36.05545 27.95187,-38.82603 6.6429,-9.0092 21.1507,-29.2578 21.7797,-30.398 0.5342,-0.9542 0.9197,-4.2936 0.7614,-6.4434 0,-0.4531 -1.1469,-0.656 -3.6457,-0.656 -2.0923,0 -3.8608,-0.2637 -4.23,-0.6289 -0.8494,-0.8311 -0.8142,-4.3193 0.088,-5.0233 0.3855,-0.3043 2.3392,-0.6289 4.3626,-0.7168 l 3.6808,-0.1555 -0.142,-1.8814 c -0.1826,-2.4176 0.7608,-3.1845 3.6762,-2.9776 l 2.2864,0.1556 0.2638,2.3473 0.2637,2.3493 3.9663,0.257 3.9669,0.2637 v 2.8701 2.87 l -3.9669,0.2638 -3.9663,0.2569 -0.1623,3.497 c -0.1352,2.9532 0,3.8026 1.1165,5.4784 3.0114,4.7007 66.0505,87.06043 66.7525,87.21323 0.426,0.1015 0.7791,0.4599 0.7791,0.8142 0,1.0313 7.9351,11.859 8.4586,11.5391 0.8839,-0.541 8.2849,-12.5054 10.2535,-16.5758 4.3856,-9.068 7.242,-17.9291 9.1241,-28.3036 1.3356,-7.3584 1.3356,-25.51865 0,-32.87633 -4.8941,-26.9775 -18.3111,-48.8444 -39.7357,-64.7663 -20.1465,-14.9703 -44.9357,-21.6315 -70.6045,-18.9731 -41.83217,4.3334 -77.24997,35.5929 -86.93537,76.7306 -2.045,8.6852 -2.6706,14.22718 -2.6767,23.70768 0,13.70975 1.897,23.70425 7.2144,37.83265 2.7835,7.3949 13.0471,24.5273 14.6938,24.5273 0.2367,0 11.3368,-15.205 24.6673,-33.7887 z m -27.1634,22.9611 c -5.3681,-8.9584 -9.5285,-19.1835 -12.1179,-29.7872 -1.2687,-5.1944 -1.2822,-5.4257 -0.3517,-6.1182 0.5275,-0.399 1.2836,-0.7256 1.6745,-0.7344 0.3854,0 1.3437,-0.3652 2.116,-0.7878 1.5655,-0.8575 12.1125,-5.4926 12.4993,-5.4926 0.1353,0 1.621,-0.6222 3.3015,-1.3674 1.6812,-0.752 3.7695,-1.6711 4.6419,-2.043 0.8757,-0.372 3.0147,-1.29905 4.7602,-2.06255 10.7072,-4.6858 11.9299,-5.1437 12.4073,-4.6493 0.2503,0.257 1.0895,1.9943 1.8686,3.8601 0.7783,1.8651 2.2296,4.83925 3.2223,6.60705 0.9928,1.7697 1.8057,3.5409 1.8057,3.9399 0,0.399 -1.6068,2.8558 -3.5707,5.4648 -4.0035,5.3188 -9.6212,12.899 -19.2647,25.9962 -3.5916,4.8792 -7.004,9.5096 -7.5822,10.2906 -0.5748,0.7784 -1.4154,1.4256 -1.8604,1.4344 -0.4666,0 -1.9726,-1.924 -3.5456,-4.5499 z m 158.55897,1.3052 c -0.5546,-0.6424 -5.358,-6.5753 -10.6707,-13.1776 -5.312,-6.601 -12.3513,-15.3322 -15.6433,-19.4026 -3.2921,-4.0698 -5.9849,-7.6289 -5.9849,-7.9082 0,-0.284 1.013,-2.1296 2.2513,-4.111 1.2389,-1.9821 2.824,-4.94005 3.524,-6.57255 0.6986,-1.6338 1.5763,-2.9694 1.9496,-2.9694 0.9859,0 33.7942,13.52035 41.1958,16.97745 0.8751,0.4057 1.3167,0.7432 0.9867,0.752 -0.3246,0 -1.1239,2.1843 -1.7664,4.84 -1.6967,7.0088 -4.5364,15.013 -7.5133,21.1791 -2.7753,5.751 -6.252,11.5661 -6.914,11.5661 -0.2232,0 -0.8575,-0.5342 -1.4148,-1.1746 z m 2.3419,-45.6165 c -7.8534,-3.27035 -14.8311,-6.17425 -15.5033,-6.45285 -0.6695,-0.284 -1.3214,-0.5072 -1.4391,-0.5072 -0.1149,0 -1.4708,-0.568 -3.0066,-1.2511 -1.5358,-0.6897 -3.7107,-1.627 -4.8333,-2.0849 -1.6122,-0.656 -1.9591,-1.0259 -1.6527,-1.7488 0.9183,-2.1688 2.2999,-8.05698 2.9403,-12.52768 l 0.6905,-4.8265 h 18.3517 18.351 l 0.3652,1.435 c 1.0834,4.2402 1.8638,12.13008 1.8638,18.82918 0,7.00735 -0.7162,13.99785 -1.5149,14.75995 -0.1825,0.1826 -6.7612,-2.3554 -14.6146,-5.6251 z m -174.66747,4.6506 c -0.2029,-0.5004 -0.3855,-5.8442 -0.3855,-11.87035 0,-10.68758 0.8318,-19.52158 1.9902,-21.00458 0.3923,-0.4937 4.7217,-0.656 18.4403,-0.656 h 17.9297 l 0.514,1.3383 c 0.284,0.7344 0.5207,2.3203 0.5207,3.5213 0,1.2017 0.6019,4.5323 1.3228,7.40168 0.7256,2.8694 1.316,5.3972 1.316,5.6177 0,0.2231 -0.771,0.7351 -1.7197,1.1327 -0.9448,0.4058 -2.8464,1.2213 -4.2247,1.8185 -1.3782,0.6019 -2.6509,1.0867 -2.8288,1.0867 -0.1825,0 -1.0725,0.3246 -1.9882,0.7338 -5.7806,2.5366 -29.1434,11.79185 -29.7669,11.79185 -0.4193,0 -0.9238,-0.4125 -1.1287,-0.9122 z m 2.7929,-37.16923 c -0.6904,-1.0996 3.3408,-11.8704 7.1724,-19.1666 2.4211,-4.6121 5.5596,-9.5461 6.0735,-9.5461 0.2976,0 18.3531,7.4186 22.6318,9.3 3.0655,1.3477 3.0919,1.3788 2.7903,3.2061 -0.1691,1.0144 -0.6817,3.1372 -1.1341,4.7149 -0.4599,1.5784 -1.0476,4.6973 -1.3147,6.9303 -0.2637,2.233 -0.6289,4.2882 -0.8054,4.5655 -0.4328,0.6904 -34.9857,0.6816 -35.4172,0 z m 148.86817,-1.036 c 0,-2.0924 -1.8286,-11.2287 -2.8024,-13.9932 -0.9475,-2.6936 -1.7799,-2.1411 10.7363,-7.1258 4.7994,-1.9111 9.2019,-3.689 9.7841,-3.9494 1.3647,-0.6086 5.1099,-2.0862 5.2986,-2.0862 0.088,0 1.2105,1.7021 2.5136,3.783 4.0366,6.4454 9.1167,18.0433 10.1723,23.2221 l 0.3449,1.6961 h -18.0237 -18.0237 z m -111.32617,-21.1934 c -1.4547,-0.6695 -2.8248,-1.2362 -3.0466,-1.245 -0.2231,0 -1.412,-0.4734 -2.6435,-1.0502 -1.2342,-0.5681 -5.3282,-2.302 -9.0997,-3.8594 -3.7716,-1.5561 -6.9439,-3.0885 -7.0514,-3.4057 -0.1015,-0.3178 0.5748,-1.5736 1.5202,-2.7943 2.1701,-2.8031 13.3149,-13.7971 15.9936,-15.7758 l 2.0186,-1.4905 7.6323,7.5173 c 4.1996,4.1347 7.6336,7.8183 7.6336,8.1855 0,0.3652 -1.0779,1.9726 -2.3966,3.57 -1.3187,1.5966 -3.4983,4.7723 -4.8427,7.0574 -1.3458,2.2838 -2.5867,4.2348 -2.7592,4.3355 -0.169,0.095 -1.504,-0.3719 -2.9586,-1.0448 z m 105.22627,-0.6086 c -1.4526,-3.0506 -4.3789,-7.4314 -6.9878,-10.4665 l -2.3818,-2.7693 7.9529,-7.8953 7.9521,-7.8954 2.0301,1.4918 c 5.0402,3.7039 18.161,17.5443 18.161,19.1592 0,0.257 -0.8926,0.823 -1.9834,1.2504 -1.0908,0.4193 -2.5779,1.0354 -3.3049,1.3471 -0.7256,0.3043 -1.7982,0.7608 -2.3805,0.9928 -13.7483,5.5108 -16.9417,6.7423 -17.4813,6.7423 -0.3517,0 -1.0631,-0.8758 -1.5764,-1.9571 z m -96.92587,-23.2512 c -8.6047,-8.5047 -8.4025,-7.4889 -2.2181,-11.1543 4.1008,-2.4305 9.4392,-4.9651 14.6404,-6.9486 l 3.79917,-1.4492 1.5757,3.9845 c 0.8676,2.1925 2.3229,5.9721 3.2339,8.4006 l 1.6575,4.4153 -1.2146,0.9224 c -0.6762,0.5072 -1.389,0.9271 -1.6021,0.9339 -0.7337,0 -6.50627,3.8317 -9.21737,6.0891 -1.5006,1.2504 -2.8126,2.2715 -2.9147,2.2715 -0.1014,0 -3.5862,-3.359 -7.7398,-7.4652 z m 82.35927,5.2417 c -2.8417,-2.2729 -7.2786,-5.1626 -10.2036,-6.6436 -0.8317,-0.4261 -1.6223,-1.0381 -1.75,-1.3654 -0.257,-0.6762 5.4763,-14.6999 6.4427,-15.7555 0.7256,-0.7967 4.5573,0.4869 11.6473,3.8838 4.4585,2.139 11.8859,6.4927 11.8859,6.9675 0,0.1487 -3.4098,3.6369 -7.5775,7.7418 l -7.5775,7.4632 z m -57.625,-11.6486 c -0.5749,-1.3147 -1.0381,-2.5502 -1.0381,-2.7429 0,-0.1962 -0.8318,-2.4454 -1.8509,-5.0044 -2.2587,-5.6765 -2.3034,-6.442 -0.399,-6.8539 0.7959,-0.1758 1.7819,-0.4193 2.1823,-0.541 4.0968,-1.2741 19.6373,-3.1994 20.6814,-2.5617 0.3246,0.2029 0.541,3.4023 0.541,8.1375 v 7.8101 l -1.3566,0.514 c -0.7432,0.284 -2.1153,0.5072 -3.0418,0.5072 -1.9571,0 -7.3996,1.1165 -11.2043,2.2972 -1.4533,0.4531 -2.8308,0.8231 -3.0587,0.8231 -0.2299,0 -0.8852,-1.0699 -1.4547,-2.3859 z m 38.3061,1.4093 c -2.6334,-0.8859 -7.4267,-1.8178 -12.5047,-2.4312 l -2.5117,-0.3043 v -8.0252 c 0,-4.842 0.2164,-8.155 0.5343,-8.3518 0.6904,-0.426 11.8738,0.6627 16.0605,1.5615 7.8326,1.6785 8.7922,1.953 8.7922,2.513 0,1.2937 -6.5159,16.0179 -7.0731,15.9827 -0.3246,0 -1.8117,-0.4395 -3.2975,-0.9454 z m -53.61797,131.21763 c -1.4046,-2.5347 -10.9014,-8.0158 -15.736,-9.0822 -2.2235,-0.4869 -2.2587,-0.4734 -3.8404,1.6487 -0.8758,1.1774 -1.5176,2.375 -1.4209,2.6624 0.1015,0.2841 1.5872,0.7872 3.3117,1.1166 1.7251,0.3246 3.7309,0.8405 4.4579,1.1367 3.8865,1.5886 7.4801,3.447 10.313,5.3303 l 3.1737,2.11 0.169,-1.9213 c 0.1015,-1.0577 -0.1014,-2.4088 -0.426,-3.0012 z m 89.72967,1.7657 c 3.6762,-0.9258 9.1627,-2.9992 9.1627,-3.4618 0,-0.1217 -3.0195,-4.2638 -6.7105,-9.1985 -12.1977,-16.3053 -15.2647,-20.4251 -17.056,-22.9138 -0.9765,-1.3538 -1.9767,-2.3391 -2.2256,-2.187 -0.5477,0.3381 -0.5951,37.2809 0,38.1357 0.9225,1.4297 10.5585,1.2166 16.8721,-0.3719 z m -89.20627,-21.1399 c 0,-9.557 -0.1961,-15.8286 -0.4869,-15.6508 -0.4734,0.2976 -12.1883,16.7341 -14.9819,21.0412 -0.9982,1.5385 -1.247,2.2987 -0.7966,2.4265 4.4342,1.2551 8.604,3.2501 13.346,6.3852 1.4499,0.9596 2.7003,1.7448 2.776,1.7448 0.088,0 0.142,-7.1758 0.142,-15.9469 z m 40.78457,-35.13245 c 1.7285,-1.7042 2.0532,-2.3696 2.0532,-4.2002 0,-4.2138 -2.5692,-6.82078 -6.716,-6.81808 -2.2986,0 -5.0841,1.48438 -6.0147,3.20068 -0.919,1.692 -0.7783,4.7643 0.2976,6.5604 1.2944,2.16 3.3049,3.2529 6.0194,3.2691 1.9868,0 2.5968,-0.2637 4.3626,-2.0119 z"
       id="path2" /><g
       id="g21"
       style="fill:#ffffff;fill-opacity:1"><path
         style="opacity:0.953902;fill:#ffffff;fill-opacity:1;stroke-width:16.7522;stroke-linecap:round;stroke-linejoin:round;stroke-miterlimit:100;stroke-dashoffset:349.228;paint-order:markers fill stroke"
         d="m 4517.5736,4458.1762 c -1.7729,-0.4813 -4.7193,-0.9645 -6.5477,-1.0738 -1.8283,-0.1092 -5.2878,-1.1105 -7.6877,-2.2249 -2.3999,-1.1144 -5.1424,-2.0281 -6.0945,-2.0303 -2.0534,0 -7.3988,-3.2196 -10.8264,-6.511 -1.3458,-1.2923 -2.7936,-2.3496 -3.2175,-2.3496 -2.1396,0 -14.1688,-14.7046 -15.41,-18.8375 -0.4576,-1.5236 -1.2966,-3.0694 -1.8645,-3.4352 -0.5678,-0.3657 -1.1732,-1.363 -1.3454,-2.2162 -0.1721,-0.8531 -0.613,-2.2991 -0.9797,-3.2133 -4.7648,-11.8789 -5.9057,-33.1498 -2.5261,-47.0937 2.2165,-9.1447 5.3456,-16.4382 9.9833,-23.2699 2.6295,-3.8733 14.9407,-16.0673 16.2217,-16.0673 0.48,0 1.5316,-0.6233 2.337,-1.3851 2.1904,-2.072 13.596,-7.4796 15.7759,-7.4796 1.0457,0 2.7882,-0.4746 3.8722,-1.0547 1.084,-0.5802 6.6609,-1.1304 12.3931,-1.2227 11.4127,-0.1839 21.3558,1.8117 29.0176,5.8239 2.571,1.3464 5.0603,2.4704 5.5318,2.498 0.4715,0.028 3.3387,2.7068 6.3715,5.954 l 5.5143,5.9041 v -8.9513 -8.9513 h 17.7379 17.738 l -0.2856,67.3164 -0.2856,67.3163 -17.4524,0.3052 -17.4523,0.3052 v -9.5964 -9.5963 l -2.4361,3.1967 c -3.3666,4.4177 -8.0156,8.5912 -11.6667,10.4737 -1.6899,0.8713 -3.3668,1.9839 -3.7264,2.4725 -0.3595,0.4886 -1.7308,0.9694 -3.0472,1.0686 -1.3164,0.099 -2.3935,0.6023 -2.3935,1.118 0,0.5157 -0.4986,0.6295 -1.1081,0.2528 -0.6094,-0.3766 -1.7314,-0.289 -2.4932,0.1947 -0.7618,0.4837 -1.6344,0.9278 -1.9391,0.9868 -0.3048,0.059 -1.8007,0.426 -3.3243,0.8154 -4.5979,1.1754 -14.9523,1.4895 -18.3843,0.5578 z m 25.5869,-32.7598 c 5.4283,-1.8177 9.4187,-3.8841 9.4187,-4.8775 0,-0.5116 0.4896,-0.9302 1.0879,-0.9302 1.7356,0 8.5086,-7.0415 9.3633,-9.7345 0.4285,-1.35 1.1644,-2.4545 1.6355,-2.4545 2.4334,0 4.7127,-20.2131 3.1997,-28.3759 -2.0096,-10.8423 -10.9532,-21.9099 -21.4603,-26.5566 -7.1685,-3.1702 -19.2729,-4.167 -24.5956,-2.0253 -1.9918,0.8014 -3.8641,1.4731 -4.1607,1.4926 -2.8111,0.185 -9.1113,4.2049 -13.8274,8.8228 -3.1698,3.1037 -5.4519,5.6431 -5.0713,5.6431 0.3805,0 -0.084,1.1846 -1.0329,2.6323 -0.9487,1.4478 -1.9158,3.567 -2.1492,4.7094 -0.2334,1.1424 -0.8799,4.0717 -1.4366,6.5094 -1.6486,7.2196 -0.6421,16.5758 2.8012,26.0401 0.3325,0.9142 0.6561,1.9115 0.7189,2.2162 0.2951,1.4309 10.604,12.6835 10.604,11.5746 0,-0.3799 1.5342,0.6002 3.4093,2.178 1.8751,1.5778 3.9943,2.9323 4.7094,3.0101 0.715,0.078 2.4378,0.2598 3.8283,0.4045 1.3906,0.1446 2.8122,0.5469 3.1591,0.8938 0.9727,0.9726 16.0611,0.079 19.7987,-1.1724 z"
         id="path21"
         transform="scale(0.26458333)" /><path
         style="opacity:0.953902;fill:#ffffff;fill-opacity:1;stroke-width:35.2626;stroke-linecap:round;stroke-linejoin:round;stroke-miterlimit:100;stroke-dashoffset:349.228;paint-order:markers fill stroke"
         d="m 3266.0571,4510.822 c -0.3507,-0.3507 -4.8254,-1.0684 -9.9438,-1.5949 -5.1184,-0.5265 -13.2422,-2.6489 -18.053,-4.7166 -8.7353,-3.7544 -8.7468,-3.7778 -8.7468,-17.9331 v -14.1737 l 7.4124,3.833 c 15.9728,8.2599 50.516,4.3158 61.4098,-7.0116 4.9724,-5.1703 11.4538,-25.897 9.2256,-29.5023 -0.73,-1.1811 -3.8442,0.2054 -6.9205,3.0811 -9.8956,9.2502 -12.0609,10.6322 -20.1655,12.8699 -10.828,2.9898 -33.9615,1.5619 -44.2006,-2.7283 -20.9789,-8.7902 -36.8952,-34.7764 -37.6391,-61.453 -0.5266,-18.8843 0.6131,-24.2608 8.4005,-39.6285 6.0043,-11.8488 21.3099,-26.2866 27.8668,-26.2866 1.9535,0 3.9431,-1.1739 4.4214,-2.6087 0.48,-1.4399 8.3584,-3.1446 17.5835,-3.8047 13.9482,-0.998 18.505,-0.354 27.5372,3.8916 5.9527,2.7981 13.2833,7.5477 16.2903,10.5547 6.4841,6.4841 8.0824,5.5106 8.0824,-4.9229 v -7.7749 h 16.472 16.4721 l -0.3711,71.7236 -0.371,71.7237 -7.0253,12.6606 c -7.1878,12.9535 -14.7415,20.9446 -19.9286,21.0827 -1.6036,0.043 -2.9156,1.0867 -2.9156,2.3202 0,3.1689 -42.3202,12.9716 -44.8931,10.3987 z m 21.0913,-87.0546 c 4.6485,-2.522 18.3748,-16.5533 16.1936,-16.5533 -0.816,0 0.024,-3.6084 1.8667,-8.0186 3.3187,-7.9427 2.5497,-20.7359 -1.5639,-26.0169 -1.0912,-1.4009 -1.4212,-3.1099 -0.7334,-3.7978 2.6812,-2.6811 -13.7051,-15.8362 -22.7647,-18.2757 -16.9254,-4.5576 -32.7555,1.6283 -42.2557,16.5122 -4.619,7.2364 -7.0385,32.3315 -3.5253,36.5646 1.3841,1.6677 1.6517,3.0322 0.5948,3.0322 -1.057,0 2.5027,4.2514 7.9104,9.4476 5.4076,5.1962 10.7946,8.8527 11.9711,8.1256 1.1764,-0.7271 2.8026,-0.2481 3.6138,1.0644 1.6888,2.7326 22.6164,1.2124 28.6926,-2.0843 z"
         id="path3"
         transform="scale(0.26458333)" /><path
         style="opacity:0.953902;fill:#ffffff;fill-opacity:1;stroke-width:16.7522;stroke-linecap:round;stroke-linejoin:round;stroke-miterlimit:100;stroke-dashoffset:349.228;paint-order:markers fill stroke"
         d="m 3369.1413,4363.6502 v -92.5253 h 17.7294 17.7294 l 0.035,52.9112 c 0.03,45.8848 0.2436,52.636 1.6046,50.8388 0.8632,-1.1397 3.7181,-4.3809 6.3442,-7.2025 4.2035,-4.5166 10.4076,-11.5183 24.1505,-27.2557 2.1331,-2.4426 5.7482,-6.3759 8.0336,-8.7406 2.2855,-2.3647 4.1554,-4.5119 4.1554,-4.7715 0,-0.2596 1.1462,-1.7082 2.5472,-3.2192 l 2.5473,-2.7471 20.6523,0.3023 20.6523,0.3023 -3.8944,4.4323 c -2.1418,2.4378 -6.9719,7.7051 -10.7335,11.705 -3.7616,3.9999 -10.3297,11.1744 -14.5959,15.9432 -4.2661,4.7689 -9.0032,10.0456 -10.5268,11.7261 -1.5236,1.6805 -4.2151,4.7282 -5.981,6.7726 -1.7659,2.0444 -4.1686,4.7828 -5.3392,6.0854 -2.1117,2.3496 -2.1031,2.3976 1.0963,6.0945 1.7736,2.0494 3.6776,4.555 4.2311,5.5679 0.5535,1.013 2.8964,3.8802 5.2064,6.3715 2.31,2.4914 3.8543,4.5298 3.4317,4.5298 -0.4225,0 0.3053,0.9311 1.6175,2.0691 1.3121,1.138 2.3857,2.4057 2.3857,2.817 0,0.8347 1.5376,2.8487 5.2969,6.9381 1.3896,1.5117 5.0635,6.0766 8.1641,10.1443 3.1006,4.0677 6.4514,8.2445 7.4462,9.2818 2.8999,3.0238 4.1402,4.6935 4.2691,5.7467 0.066,0.5413 0.6799,1.33 1.3637,1.7526 0.6838,0.4226 2.347,2.3051 3.696,4.1834 1.3489,1.8782 4.1151,5.4526 6.147,7.9431 l 3.6944,4.5283 h -19.4055 c -20.9378,0 -19.6928,0.3315 -25.1042,-6.6838 -1.5237,-1.9752 -4.3908,-5.3113 -6.3716,-7.4136 -1.9807,-2.1023 -3.6012,-4.2053 -3.6012,-4.6735 0,-0.4681 -1.1402,-2.0813 -2.5337,-3.5849 -1.3934,-1.5036 -4.5099,-5.1909 -6.9255,-8.194 -2.4156,-3.0031 -4.8906,-6.002 -5.5,-6.6644 -0.9883,-1.074 -3.7057,-4.4013 -10.1466,-12.4235 l -2.0424,-2.5439 -6.669,7.2533 c -3.6679,3.9893 -6.4398,7.2533 -6.1597,7.2533 0.2801,0 -0.3822,0.6518 -1.4717,1.4485 -1.7693,1.2937 -1.9644,3.3073 -1.8252,18.8375 l 0.1558,17.389 h -17.7781 -17.7782 z"
         id="path5"
         transform="scale(0.26458333)" /><path
         style="opacity:0.953902;fill:#ffffff;fill-opacity:1;stroke-width:16.7522;stroke-linecap:round;stroke-linejoin:round;stroke-miterlimit:100;stroke-dashoffset:349.228;paint-order:markers fill stroke"
         d="m 3515.4089,4388.5822 v -67.5934 h 17.1754 17.1754 v 67.5934 67.5934 h -17.1754 -17.1754 z"
         id="path7"
         transform="scale(0.26458333)" /><path
         style="opacity:0.953902;fill:#ffffff;fill-opacity:1;stroke-width:16.7522;stroke-linecap:round;stroke-linejoin:round;stroke-miterlimit:100;stroke-dashoffset:349.228;paint-order:markers fill stroke"
         d="m 3515.4089,4286.6381 v -15.5132 h 17.1754 17.1754 v 15.5132 15.5132 h -17.1754 -17.1754 z"
         id="path11"
         transform="scale(0.26458333)" /><path
         style="opacity:0.953902;fill:#ffffff;fill-opacity:1;stroke-width:16.7522;stroke-linecap:round;stroke-linejoin:round;stroke-miterlimit:100;stroke-dashoffset:349.228;paint-order:markers fill stroke"
         d="m 3673.7462,4459.0111 c -0.2466,-0.2465 -3.3996,-0.793 -7.0068,-1.2143 -14.6277,-1.7086 -20.9246,-4.3028 -29.2413,-12.0469 -4.4559,-4.1491 -11.2804,-15.0799 -11.2804,-18.0679 0,-1.1899 -0.3468,-2.5104 -0.7708,-2.9343 -0.4239,-0.424 -0.8751,-1.4814 -1.0025,-2.3498 -0.2292,-1.5616 1.6482,-2.3815 11.7461,-5.1297 2.7425,-0.7464 5.485,-1.4933 6.0945,-1.6597 0.6094,-0.1664 2.2319,-0.5528 3.6054,-0.8586 1.3736,-0.3058 2.9542,-0.8384 3.5126,-1.1835 0.9971,-0.6162 1.7197,0.1939 8.3952,9.4121 3.6133,4.9895 5.8081,6.5294 10.347,7.2595 1.6226,0.2611 3.9474,0.6763 5.1663,0.9228 3.8377,0.776 14.2558,-3.0734 15.5967,-5.7628 0.6723,-1.3486 1.4855,-2.1889 1.807,-1.8673 0.3215,0.3215 0.9163,-1.4898 1.3217,-4.0252 0.5443,-3.4039 0.253,-5.3487 -1.1138,-7.4347 -2.5574,-3.903 -7.1063,-7.9754 -8.9087,-7.9754 -0.8252,0 -1.5004,-0.528 -1.5004,-1.1734 0,-0.6455 -0.474,-0.8806 -1.0533,-0.5226 -0.5793,0.3581 -2.9404,-0.3605 -5.247,-1.5967 -2.3065,-1.2362 -4.9627,-2.2477 -5.9027,-2.2477 -0.94,0 -2.8495,-0.7988 -4.2434,-1.7752 -1.3939,-0.9763 -2.8238,-1.4857 -3.1774,-1.1321 -1.2302,1.2302 -15.3379,-7.0933 -19.9557,-11.7737 -7.4617,-7.5629 -7.6247,-7.7983 -9.7999,-14.1545 -2.4963,-7.2942 -2.4233,-19.6977 0.1499,-25.4608 3.2201,-7.212 4.1697,-8.8647 5.0933,-8.8647 0.5064,0 0.9208,-0.6296 0.9208,-1.3991 0,-0.7696 1.3289,-2.3901 2.9531,-3.6013 1.6243,-1.2112 3.5131,-2.7554 4.1975,-3.4315 1.4498,-1.4324 11.2245,-5.9278 14.4571,-6.6488 12.3676,-2.7585 30.6883,-2.364 34.4302,0.7415 0.8704,0.7224 1.5827,0.9983 1.5827,0.6131 0,-0.3852 2.6178,0.6653 5.8174,2.3344 7.4486,3.8857 14.5551,11.1972 18.0369,18.5572 3.7541,7.9355 3.5893,10.1339 -0.8615,11.4865 -3.1015,0.9426 -9.737,2.5766 -10.5021,2.5861 -0.1388,0 -2.7624,0.6653 -5.8303,1.4746 -5.2838,1.3938 -5.6428,1.3505 -6.8047,-0.8205 -0.6746,-1.2606 -3.149,-4.1763 -5.4986,-6.4794 -6.9197,-6.7827 -16.8492,-7.0324 -24.0311,-0.6045 -1.3893,1.2434 -2.308,2.8285 -2.0417,3.5224 0.2663,0.694 0.06,1.9478 -0.458,2.7863 -0.5386,0.8715 -0.4781,2.0837 0.1414,2.8301 0.596,0.7181 0.9414,1.7321 0.7677,2.2533 -0.769,2.3069 10.6266,10.3665 14.6573,10.3665 0.94,0 2.7071,0.6991 3.927,1.5535 1.2198,0.8544 4.4473,2.1533 7.1721,2.8864 2.7248,0.733 6.45,2.1323 8.2784,3.1094 1.8283,0.9771 3.5736,1.8302 3.8783,1.8958 1.7901,0.3852 8.5417,4.9896 12.5312,8.5457 2.5543,2.2768 5.0476,4.1467 5.5406,4.1553 0.4931,0.01 0.5883,0.5143 0.2116,1.1237 -0.3766,0.6095 -0.2109,1.1081 0.3684,1.1081 0.9406,0 4.2388,6.7184 5.4398,11.0809 0.507,1.8413 0.4804,14.8033 -0.037,18.2835 -0.1813,1.2188 -1.18,4.1469 -2.2191,6.5068 -1.0392,2.3598 -1.8894,4.6667 -1.8894,5.1264 0,0.4597 -1.9946,2.9537 -4.4324,5.5421 -2.4378,2.5885 -4.4323,4.3751 -4.4323,3.9704 0,-0.4047 -1.3374,0.5043 -2.972,2.02 -1.6346,1.5156 -3.3798,2.5037 -3.8783,2.1956 -0.4985,-0.3081 -0.9063,0 -0.9063,0.6787 0,0.6814 -0.4987,0.9307 -1.1081,0.5541 -0.6095,-0.3767 -1.1081,-0.074 -1.1081,0.6733 0,0.747 -0.3149,1.0433 -0.6998,0.6584 -0.3848,-0.3848 -1.7561,-0.1116 -3.0472,0.6071 -1.2911,0.7188 -2.7215,1.3869 -3.1786,1.4847 -0.4571,0.098 -0.9557,0.2816 -1.1081,0.4086 -0.4802,0.4002 -4.5132,1.0538 -10.2498,1.6611 -3.0472,0.3226 -6.5883,0.8301 -7.8691,1.1278 -1.2808,0.2976 -2.5304,0.3394 -2.777,0.093 z"
         id="path13"
         transform="scale(0.26458333)" /><path
         style="opacity:0.953902;fill:#ffffff;fill-opacity:1;stroke-width:16.7522;stroke-linecap:round;stroke-linejoin:round;stroke-miterlimit:100;stroke-dashoffset:349.228;paint-order:markers fill stroke"
         d="m 3802.9577,4458.6812 c -9.5862,-0.8066 -27.7362,-6.4022 -31.173,-9.6107 -0.7103,-0.6631 -3.1608,-2.7015 -5.4457,-4.5299 -5.8626,-4.6912 -11.1841,-10.5574 -14.7009,-16.2054 -2.6024,-4.1795 -6.0169,-10.9576 -5.9208,-11.7533 0.017,-0.1411 -0.4628,-1.8863 -1.0664,-3.8783 -3.4538,-11.3988 -4.6817,-26.8073 -2.8937,-36.3104 0.5161,-2.7425 1.109,-6.6062 1.3176,-8.586 0.2087,-1.9798 1.4263,-5.3741 2.706,-7.5429 1.2796,-2.1688 2.3266,-4.6272 2.3266,-5.463 0,-0.8358 0.7836,-2.3032 1.7413,-3.2609 0.9577,-0.9577 1.3971,-1.7413 0.9765,-1.7413 -1.0742,0 5.595,-8.8693 10.0252,-13.3323 6.5619,-6.6106 17.8924,-13.1056 27.4002,-15.7067 11.5234,-3.1525 27.1397,-3.092 35.7742,0.1386 3.5694,1.3355 7.0212,2.7607 7.6706,3.1671 0.6494,0.4065 1.8788,0.8446 2.7319,0.9735 0.8532,0.129 1.9675,0.891 2.4763,1.6933 0.5087,0.8024 0.9326,1.0652 0.9419,0.5841 0.01,-0.4812 0.7889,-0.2318 1.7322,0.554 1.941,1.6169 2.4221,2.129 7.0684,7.5233 l 3.3404,3.8783 0.032,-9.1417 0.033,-9.1418 h 17.1753 17.1754 v 67.5934 67.5934 h -17.1754 -17.1753 v -8.8647 c 0,-5.1711 -0.4617,-8.8647 -1.1081,-8.8647 -0.6095,0 -1.1081,0.4359 -1.1081,0.9688 0,2.0553 -7.4895,8.802 -13.5741,12.2278 -3.5043,1.973 -6.3715,3.2839 -6.3715,2.913 0,-0.3709 -0.9578,-0.1617 -2.1286,0.4648 -1.8965,1.015 -6.1712,1.9759 -12.8306,2.8842 -1.2189,0.1662 -2.2161,0.3854 -2.2161,0.4869 0,0.387 -4.5709,0.5575 -7.7567,0.2895 z m 23.5469,-33.2657 c 2.5902,-0.8705 4.7094,-1.9271 4.7094,-2.3478 0,-0.4208 1.6206,-1.6981 3.6013,-2.8384 4.6223,-2.6613 9.6254,-7.4279 9.665,-9.2083 0.017,-0.7618 0.408,-1.3851 0.869,-1.3851 0.4611,0 1.5154,-2.1192 2.343,-4.7094 4.164,-13.0329 3.7153,-24.7952 -1.3526,-35.4582 -4.832,-10.1665 -12.708,-16.0373 -25.6617,-19.1285 -11.1125,-2.6518 -23.0474,0.2452 -31.2943,7.5961 -1.3713,1.2223 -2.4932,1.8188 -2.4932,1.3257 0,-0.4932 -0.9973,0.3712 -2.2162,1.9208 -1.2189,1.5496 -2.2162,3.362 -2.2162,4.0277 0,0.6657 -0.4891,1.2103 -1.087,1.2103 -0.5978,0 -1.4147,1.3713 -1.8153,3.0473 -0.4006,1.676 -1.0194,3.5459 -1.3751,4.1553 -0.3556,0.6095 -0.7657,1.6067 -0.9112,2.2162 -1.7288,7.2405 -2.0469,9.6526 -1.8998,14.4051 0.2304,7.4467 0.871,10.2189 3.802,16.4544 3.1832,6.772 9.4873,13.12 16.5538,16.6693 3.0636,1.5388 5.5701,2.5442 5.5701,2.2344 0,-0.3099 0.87,-0.077 1.9333,0.5185 2.8305,1.5841 17.8152,1.13 23.2757,-0.7054 z"
         id="path14"
         transform="scale(0.26458333)" /><path
         style="opacity:0.953902;fill:#ffffff;fill-opacity:1;stroke-width:16.7522;stroke-linecap:round;stroke-linejoin:round;stroke-miterlimit:100;stroke-dashoffset:349.228;paint-order:markers fill stroke"
         d="m 3912.1044,4363.6502 v -92.5816 l 17.4524,0.3052 17.4524,0.3051 v 91.9713 91.9713 l -17.4524,0.3052 -17.4524,0.3052 z"
         id="path15"
         transform="scale(0.26458333)" /><path
         style="opacity:0.953902;fill:#ffffff;fill-opacity:1;stroke-width:16.7522;stroke-linecap:round;stroke-linejoin:round;stroke-miterlimit:100;stroke-dashoffset:349.228;paint-order:markers fill stroke"
         d="m 4031.5082,4458.8607 c -0.3359,-0.3359 -2.2826,-0.6308 -4.3259,-0.6554 -4.6817,-0.056 -14.1787,-2.6751 -21.6863,-5.9799 -5.953,-2.6204 -6.88,-3.2428 -12.8645,-8.6367 -1.9332,-1.7425 -4.3061,-3.7371 -5.273,-4.4324 -3.5463,-2.5501 -15.6871,-21.7638 -13.7522,-21.7638 0.3312,0 -0.1487,-1.1458 -1.0663,-2.5463 -0.9176,-1.4004 -1.898,-4.5169 -2.1787,-6.9255 -0.2807,-2.4086 -0.8103,-5.8194 -1.1768,-7.5795 -1.5787,-7.5812 -0.664,-23.1313 2.028,-34.4748 0.9821,-4.1383 4.659,-12.743 5.4453,-12.743 0.525,0 0.6813,-0.4421 0.3473,-0.9825 -0.3339,-0.5404 0.1353,-1.5988 1.0427,-2.3519 0.9075,-0.7531 1.65,-1.8012 1.65,-2.3291 0,-2.2923 11.5013,-14.0111 18.2834,-18.6292 5.3884,-3.6691 17.2331,-8.5227 23.2699,-9.5353 4.8019,-0.8055 17.9165,-0.8487 23.2698,-0.077 1.8284,0.2636 5.3984,1.2304 7.9335,2.1483 2.535,0.918 4.8235,1.4547 5.0855,1.1927 0.262,-0.262 1.3816,0.524 2.4881,1.7466 1.1065,1.2226 2.8493,2.223 3.873,2.223 1.0237,0 3.1942,1.4959 4.8232,3.3242 1.6291,1.8284 3.3413,3.3243 3.8048,3.3243 0.4636,0 1.6931,1.3713 2.7322,3.0473 1.8749,3.0239 1.8896,2.9774 1.9188,-6.0945 l 0.03,-9.1418 h 17.1754 17.1753 v 67.5934 67.5934 h -17.1753 -17.1754 v -9.6958 -9.6958 l -2.0646,3.3243 c -5.7624,9.2781 -20.5396,16.4916 -38.4788,18.7833 -2.4964,0.319 -4.8137,0.3051 -5.1496,-0.031 z m 24.8875,-34.7799 c 5.636,-2.8164 16.3815,-12.631 16.3815,-14.9624 0,-0.785 0.76,-2.0581 1.6889,-2.829 0.9289,-0.7709 1.4474,-1.6432 1.1522,-1.9383 -0.2951,-0.2952 0.1388,-1.8447 0.9642,-3.4434 1.4775,-2.8617 1.708,-18.9562 0.3431,-23.9604 -1.3379,-4.9052 -4.4479,-11.6349 -5.3769,-11.6349 -0.5432,0 -0.9877,-0.5556 -0.9877,-1.2346 0,-1.4907 -7.8891,-8.5505 -11.8527,-10.6068 -1.5641,-0.8115 -4.1495,-1.7122 -5.7454,-2.0017 -1.5958,-0.2894 -4.3975,-0.9279 -6.2258,-1.4188 -6.7746,-1.8189 -15.787,-0.3845 -24.378,3.8801 -5.4482,2.7045 -12.743,8.7227 -12.743,10.5131 0,0.502 -1.2369,2.8722 -2.7488,5.2671 -2.3125,3.6632 -4.4069,12.9316 -4.1392,18.3174 0.9765,19.6469 9.7955,32.116 26.8022,37.8955 6.4481,2.1914 20.7566,1.2098 26.8654,-1.8429 z"
         id="path16"
         transform="scale(0.26458333)" /><path
         style="opacity:0.953902;fill:#ffffff;fill-opacity:1;stroke-width:16.7522;stroke-linecap:round;stroke-linejoin:round;stroke-miterlimit:100;stroke-dashoffset:349.228;paint-order:markers fill stroke"
         d="m 4188.7644,4457.6604 c -0.1357,-0.1357 -2.7277,-0.5774 -5.7599,-0.9815 -3.0322,-0.4041 -6.0117,-1.1125 -6.6211,-1.5743 -0.6095,-0.4618 -2.3681,-1.1393 -3.9081,-1.5055 -6.6449,-1.5803 -16.3332,-13.1123 -18.316,-21.8015 -1.2864,-5.6372 -1.2982,-6.0144 -1.4557,-46.2195 l -0.1441,-36.8008 -9.6958,-0.3201 -9.6958,-0.3202 -0.3111,-13.5741 -0.3111,-13.5741 h 10.0069 10.0069 v -17.1753 -17.1754 h 17.7294 17.7294 v 17.1754 17.1753 h 13.8511 13.8511 v 13.8511 13.8511 h -13.8511 -13.8511 l -0.1276,32.4116 c -0.1471,37.3655 -0.2071,36.2382 2.0645,38.7831 0.9519,1.0665 1.2933,1.9391 0.7585,1.9391 -2.2483,0 3.7753,3.0687 8.1452,4.1496 3.5227,0.8713 6.3077,0.8109 10.8039,-0.2343 l 6.0577,-1.4081 v 12.6703 c 0,6.9688 -0.4881,13.5825 -1.0847,14.6972 -1.1789,2.2027 -6.0905,4.2693 -12.2124,5.1385 -4.5771,0.6498 -13.306,1.1754 -13.659,0.8224 z"
         id="path17"
         transform="scale(0.26458333)" /><path
         style="opacity:0.953902;fill:#ffffff;fill-opacity:1;stroke-width:16.7522;stroke-linecap:round;stroke-linejoin:round;stroke-miterlimit:100;stroke-dashoffset:349.228;paint-order:markers fill stroke"
         d="m 4238.621,4455.4368 c -0.4063,-0.4063 -0.7387,-30.8233 -0.7387,-67.5933 v -66.8547 h 17.1585 17.1585 l 0.2939,67.5936 0.2938,67.5935 -16.7136,-1e-4 c -9.1926,-2e-4 -17.0461,-0.3327 -17.4524,-0.739 z"
         id="path18"
         transform="scale(0.26458333)" /><path
         style="opacity:0.953902;fill:#ffffff;fill-opacity:1;stroke-width:16.7522;stroke-linecap:round;stroke-linejoin:round;stroke-miterlimit:100;stroke-dashoffset:349.228;paint-order:markers fill stroke"
         d="m 4238.3657,4300.7048 c -0.3053,-0.7956 -0.4143,-7.6519 -0.2423,-15.2362 l 0.3129,-13.7897 17.1754,-0.3037 17.1753,-0.3038 v 15.54 15.5399 h -16.9331 c -12.908,0 -17.0651,-0.3438 -17.4882,-1.4465 z"
         id="path19"
         transform="scale(0.26458333)" /><path
         style="opacity:0.953902;fill:#ffffff;fill-opacity:1;stroke-width:16.7522;stroke-linecap:round;stroke-linejoin:round;stroke-miterlimit:100;stroke-dashoffset:349.228;paint-order:markers fill stroke"
         d="m 4350.8112,4509.1479 c -2.6897,-0.4234 -6.0123,-1.0467 -7.3836,-1.3851 -1.3712,-0.3383 -3.5303,-0.8436 -4.7979,-1.1227 -10.6701,-2.3494 -10.9923,-2.9075 -10.9923,-19.0396 v -13.6632 l 5.2634,2.069 c 10.885,4.2789 24.2768,5.7141 38.2589,4.1004 7.4143,-0.8558 10.9227,-2.0435 15.3511,-5.1967 1.7487,-1.2452 3.1795,-1.9856 3.1795,-1.6454 0,1.8996 9.0845,-7.4318 9.6671,-9.9298 0.1365,-0.5856 0.9873,-3.0593 1.8905,-5.4971 0.9032,-2.4378 1.6641,-8.1043 1.6908,-12.5923 l 0.049,-8.16 -6.0945,6.4965 c -3.352,3.573 -6.0945,6.0639 -6.0945,5.5352 0,-0.5287 -1.6726,0.3145 -3.7168,1.8737 -4.3971,3.3539 -17.6394,7.8701 -20.7167,7.0653 -1.1872,-0.3104 -2.398,-0.1768 -2.6908,0.297 -0.2928,0.4737 -2.1632,0.6814 -4.1564,0.4615 -8.4604,-0.9334 -20.181,-2.906 -21.8107,-3.6707 -15.4098,-7.2312 -21.0749,-11.313 -28.506,-20.5392 -4.9744,-6.1759 -6.8168,-9.4054 -10.3348,-18.1152 -2.3781,-5.8877 -2.632,-7.0597 -4.2671,-19.6938 -1.2518,-9.6731 -0.2369,-25.0655 1.9183,-29.0925 0.5407,-1.0102 1.0322,-2.2108 1.0923,-2.6679 0.06,-0.457 0.1474,-0.9557 0.1941,-1.108 0.047,-0.1524 0.2696,-1.2743 0.4956,-2.4932 0.6485,-3.4982 5.2357,-12.7431 6.3229,-12.7431 0.5413,0 0.6759,-0.4986 0.2993,-1.108 -0.3767,-0.6095 -0.1568,-1.1081 0.4886,-1.1081 0.6454,0 1.1735,-0.614 1.1735,-1.3644 0,-1.8117 14.1061,-15.257 16.0068,-15.257 0.817,0 1.7846,-0.7795 2.1503,-1.7323 0.3656,-0.9528 1.1669,-1.422 1.7807,-1.0427 0.6137,0.3793 1.1159,0.2373 1.1159,-0.3155 0,-1.1669 6.1373,-3.8367 13.297,-5.7843 2.7425,-0.7461 6.233,-1.7016 7.7566,-2.1234 1.5237,-0.4217 6.5101,-0.5883 11.0809,-0.3702 4.5709,0.2182 9.4326,0.4249 10.8039,0.4593 1.3712,0.034 2.4932,0.4255 2.4932,0.8689 0,0.4434 0.6233,0.881 1.3851,0.9724 4.7882,0.5744 8.5877,1.7005 8.5877,2.5451 0,0.5403 0.3739,0.8596 0.831,0.7095 1.6053,-0.5269 10.9492,6.352 14.1834,10.4416 1.798,2.2736 3.643,4.1568 4.1001,4.185 0.4571,0.028 0.8311,-3.9378 0.8311,-8.8134 v -8.8647 h 17.795 17.795 l -0.4446,67.3164 c -0.2446,37.024 -0.6918,68.5629 -0.9938,70.0865 -1.4138,7.1323 -3.5128,15.0124 -4.1321,15.5133 -0.3768,0.3047 -1.908,2.9795 -3.4027,5.9441 -1.4947,2.9645 -3.3578,5.6357 -4.1404,5.936 -0.7825,0.3003 -1.4228,1.0303 -1.4228,1.6223 0,1.6089 -9.4692,10.1166 -13.5837,12.2045 -6.9434,3.5232 -18.0705,7.3737 -25.1994,8.72 -8.1121,1.5319 -27.0495,1.9806 -34.4467,0.816 z m 25.2891,-83.1494 c 2.9036,-0.7517 5.5287,-1.6291 5.8334,-1.9497 0.3047,-0.3207 2.4735,-1.5755 4.8195,-2.7886 3.7769,-1.9529 5.4661,-3.5591 11.1492,-10.6011 1.9363,-2.3993 4.07,-8.4507 4.8537,-13.7662 1.2073,-8.1883 0.4428,-21.6077 -1.2311,-21.6077 -0.545,0 -0.7256,-0.6914 -0.4013,-1.5365 0.6427,-1.6749 -6.0547,-12.5405 -9.0331,-14.6548 -1.0154,-0.7209 -3.0445,-2.3591 -4.509,-3.6406 -1.4645,-1.2814 -3.5543,-2.3299 -4.644,-2.3299 -1.0897,0 -2.2545,-0.4421 -2.5884,-0.9825 -1.6516,-2.6723 -14.2163,-3.5251 -23.0616,-1.5652 -7.5252,1.6673 -11.5783,3.8088 -17.0309,8.9983 -0.8461,0.8054 -1.5384,1.0817 -1.5384,0.6142 0,-0.4676 -1.4014,1.3667 -3.1141,4.0762 -8.6956,13.7559 -9.7555,31.8506 -2.5488,43.5113 1.2701,2.055 2.051,3.9946 1.7354,4.3102 -0.3157,0.3156 1.2562,2.0127 3.4929,3.7713 2.2367,1.7586 4.728,3.8389 5.5361,4.6229 1.7258,1.6742 8.457,4.6509 13.1819,5.8293 5.2468,1.3085 13.353,1.1766 19.0986,-0.3109 z"
         id="path20"
         transform="scale(0.26458333)" /></g></g></svg>
